<svg width="262" height="540" viewBox="0 0 262 540" fill="none" xmlns="http://www.w3.org/2000/svg">
<path fill-rule="evenodd" clip-rule="evenodd" d="M29.1868 0C14.9513 0 3.41113 11.5402 3.41113 25.7757V70.8831H2.76618C1.69852 70.8831 0.833008 71.7486 0.833008 72.8162V141.122C0.833008 142.189 1.69852 143.055 2.76618 143.055H3.41113V175.274H2.76618C1.69852 175.274 0.833008 176.14 0.833008 177.208V209.427C0.833008 210.495 1.69852 211.36 2.76618 211.36H3.41113V514.224C3.41113 528.46 14.9513 540 29.1868 540H232.814C247.05 540 258.59 528.46 258.59 514.224V131.456H259.234C260.302 131.456 261.167 130.59 261.167 129.523V97.303C261.167 96.2354 260.302 95.3699 259.234 95.3699H258.59V25.7757C258.59 11.5402 247.05 0 232.814 0H29.1868Z" fill="white"/>
</svg>
